<svg width="221" height="70" viewBox="0 0 221 70" fill="none" xmlns="http://www.w3.org/2000/svg">
<g clip-path="url(#clip0_214_770)">
<path d="M30.0553 70L45.0842 61.3108L60.1106 52.6216V50.1106V48.1593V42.1381V36.1195V35.2433V32.6668V30.0983V24.0797V18.0584V12.0398V6.02122V0H54.1006H48.0879H42.0779H37.5384H36.0653H30.0553H24.0453H18.0326H12.0226H9.01632H6.01001H0V6.02122V12.0398V18.0584V24.0797V30.0983V36.1195V42.1381V44.7145V48.1593V50.1106V52.6216L6.01001 56.0978V49.1454V48.1593V42.1381V36.1195V30.0983V24.0797V22.492V18.0584V12.0398V6.02122H9.01632H12.0226H18.0326H24.0453H30.0553H36.0653H37.5384H42.0779H48.0879H54.1006V12.0398V18.0584V24.0797V30.0983V32.6668V36.1195V42.1381V48.1593V49.1454L30.0553 63.0476L18.636 56.4457V42.1407V36.1195V35.5101H24.6486H30.6586H36.6686H42.6813V29.4888H36.6686H30.6586H24.6486H18.636V24.0797V18.0611H24.6486H30.6586H36.6686H42.6813H48.6913V12.0398H42.6813H36.6686H30.6586H24.6486H18.636H12.626V18.0611V24.0797V30.1009V36.1195V42.1407V52.9695V59.1581V59.9219L15.0289 61.3108L30.0553 70Z" fill="#5E5B60"/>
<path d="M19.0337 56.5152V42.175V36.139V35.528H25.046H31.0558H37.0655H43.0779V29.492H37.0655H31.0558H25.046H19.0337V24.0695V18.0361H25.046H31.0558H37.0655H43.0779H49.0903V12H43.0779H37.0655H31.0558H25.046H19.0337H13.0239V18.0361V24.0695V30.1055V36.139V42.175V53.0305V59.2344V60L19.0337 56.5152Z" fill="#FF9400"/>
<path d="M80.8809 12.0026H85.4276V14.1585H85.7727C87.2701 14.1585 88.5754 14.4345 89.6939 14.9839C90.8124 15.5359 91.6714 16.3093 92.2709 17.3065C92.8703 18.3038 93.1714 19.439 93.1714 20.7071C93.1714 21.9751 92.8781 23.1911 92.289 24.1857C91.6999 25.1804 90.8358 25.9485 89.6991 26.4901C88.5599 27.0317 87.1845 27.3051 85.5703 27.3051H85.4276V30H80.8809V27.3051H80.6422C79.0358 27.3051 77.6682 27.0395 76.5419 26.5083C75.4156 25.9771 74.567 25.2194 73.9935 24.2326C73.42 23.2458 73.1345 22.0637 73.1345 20.681C73.1345 19.3791 73.4381 18.2257 74.048 17.2154C74.6578 16.2051 75.5064 15.4422 76.6016 14.9293C77.6941 14.4137 78.9735 14.1559 80.4398 14.1559H80.8809V12V12.0026ZM80.8809 17.7752H80.6058C79.6742 17.7752 78.9631 18.0226 78.4701 18.5173C77.977 19.012 77.7305 19.7359 77.7305 20.6836C77.7305 21.7616 77.9718 22.5375 78.4519 23.014C78.932 23.4905 79.6638 23.7275 80.6422 23.7275H80.8809V17.7752ZM85.4276 23.7275H85.5703C86.572 23.7275 87.3246 23.4801 87.8254 22.9854C88.3263 22.4907 88.578 21.7252 88.578 20.6862C88.578 19.7749 88.3185 19.0641 87.8021 18.5485C87.2857 18.033 86.5564 17.7752 85.617 17.7752H85.425V23.7275H85.4276Z" fill="#5E5B60"/>
<path d="M112.206 20.9948C112.206 23.9359 111.483 26.1722 110.037 27.7038C108.592 29.2355 106.478 30 103.689 30C100.901 30 98.8386 29.2303 97.3726 27.6908C95.9067 26.1514 95.175 23.9125 95.175 20.9688C95.175 18.0251 95.9041 15.8356 97.3596 14.3014C98.8151 12.7671 100.935 12 103.713 12C106.491 12 108.611 12.7619 110.048 14.2832C111.485 15.807 112.204 18.0433 112.204 20.9922L112.206 20.9948ZM100.159 20.9948C100.159 24.3753 101.336 26.0656 103.692 26.0656C104.89 26.0656 105.778 25.6547 106.356 24.833C106.934 24.0113 107.225 22.7319 107.225 20.9948C107.225 19.2577 106.931 17.9601 106.345 17.1254C105.759 16.2933 104.882 15.8746 103.715 15.8746C101.343 15.8746 100.159 17.5805 100.159 20.9922V20.9948Z" fill="#5E5B60"/>
<path d="M128.236 17.4071C128.236 19.3056 127.646 20.7717 126.461 21.8082C125.279 22.8421 123.601 23.3603 121.424 23.3603H120.06V29H115.212V12H121.421C123.686 12 125.389 12.4702 126.525 13.408C127.662 14.3459 128.231 15.6781 128.231 17.4071H128.236ZM120.063 19.6165H120.946C121.675 19.6165 122.254 19.4219 122.683 19.0351C123.113 18.6483 123.326 18.1124 123.326 17.4299C123.326 16.2822 122.654 15.7084 121.314 15.7084H120.063V19.614V19.6165Z" fill="#5E5B60"/>
<path d="M138.078 29H133.434V15.757H129.238V12H142.262V15.757H138.078V29Z" fill="#5E5B60"/>
<path d="M167.308 29H162.546V22.07H157.042V29H152.28V12H157.042V18.3029H162.546V12H167.308V29Z" fill="#5E5B60"/>
<path d="M187.345 20.9948C187.345 23.9359 186.621 26.1722 185.176 27.7038C183.731 29.2355 181.616 30 178.828 30C176.039 30 173.977 29.2303 172.511 27.6908C171.045 26.1514 170.313 23.9125 170.313 20.9688C170.313 18.0251 171.042 15.8356 172.498 14.3014C173.953 12.7671 176.073 12 178.851 12C181.629 12 183.749 12.7619 185.186 14.2832C186.623 15.807 187.342 18.0433 187.342 20.9922L187.345 20.9948ZM175.297 20.9948C175.297 24.3753 176.474 26.0656 178.83 26.0656C180.028 26.0656 180.916 25.6547 181.494 24.833C182.072 24.0113 182.364 22.7319 182.364 20.9948C182.364 19.2577 182.069 17.9601 181.483 17.1254C180.898 16.2933 180.02 15.8746 178.854 15.8746C176.482 15.8746 175.297 17.5805 175.297 20.9922V20.9948Z" fill="#5E5B60"/>
<path d="M205.378 29H200.121L195.018 20.3837V29H190.35V12H195.018V20.232L199.932 12H205.035L199.733 20.1157L205.378 29Z" fill="#5E5B60"/>
<path d="M214.89 15.8776C213.756 15.8776 212.869 16.3385 212.234 17.2604C211.598 18.1823 211.281 19.4531 211.281 21.0755C211.281 24.4453 212.572 26.1302 215.155 26.1302C215.935 26.1302 216.694 26.0234 217.426 25.8073C218.158 25.5911 218.896 25.3333 219.636 25.0286V29.0286C218.164 29.6745 216.497 30 214.638 30C211.974 30 209.931 29.2344 208.511 27.7005C207.091 26.1667 206.38 23.9505 206.38 21.0521C206.38 19.2396 206.724 17.6458 207.411 16.2734C208.099 14.901 209.089 13.8438 210.38 13.1068C211.672 12.3672 213.192 12 214.937 12C216.846 12 218.668 12.4115 220.405 13.2344L218.946 16.9583C218.295 16.6536 217.641 16.3984 216.99 16.1927C216.339 15.9844 215.638 15.8802 214.89 15.8802V15.8776Z" fill="#5E5B60"/>
<path d="M73.1345 36H74.8167C75.5833 36 76.1393 36.1013 76.4848 36.3039C76.8302 36.5065 77.0043 36.826 77.0043 37.2675C77.0043 37.5662 76.9285 37.8104 76.7768 38.0026C76.6252 38.1948 76.423 38.3091 76.173 38.3481V38.3818C76.5156 38.4519 76.7628 38.5844 76.9144 38.7792C77.0661 38.974 77.1419 39.2312 77.1419 39.5506C77.1419 40.0078 76.965 40.361 76.6083 40.6182C76.2517 40.8727 75.7687 41 75.1565 41H73.1345V36.0026V36ZM74.2803 37.9792H74.9458C75.2576 37.9792 75.4822 37.9351 75.6198 37.8468C75.7602 37.7584 75.8276 37.6104 75.8276 37.4052C75.8276 37.213 75.7518 37.0753 75.6002 36.9922C75.4485 36.9091 75.2098 36.8675 74.8812 36.8675H74.2775V37.9792H74.2803ZM74.2803 38.8208V40.1221H75.0273C75.3418 40.1221 75.5749 40.0675 75.7265 39.9532C75.8782 39.8416 75.9512 39.6701 75.9512 39.4416C75.9512 39.026 75.6311 38.8182 74.9908 38.8182H74.2803V38.8208Z" fill="#5E5B60"/>
<path d="M80.9661 41L80.5891 39.8147H78.7012L78.3242 41H77.1419L78.9705 36H80.3144L82.1511 41H80.9688H80.9661ZM80.3279 38.9296C79.9805 37.8556 79.7839 37.2474 79.7408 37.1077C79.6977 36.9679 79.6654 36.8566 79.6465 36.7738C79.5684 37.0637 79.3449 37.7831 78.9759 38.9296H80.3279Z" fill="#5E5B60"/>
<path d="M86.6702 40.119H88.1531V36H89.164V41H83.153V36H84.1664V40.119H85.6493V36H86.6702V40.119Z" fill="#5E5B60"/>
<path d="M96.1769 41H95.1427V38.843H93.2063V41H92.1696V36H93.2063V37.9595H95.1427V36H96.1769V41Z" fill="#5E5B60"/>
<path d="M101.003 41L100.626 39.8147H98.7381L98.3611 41H97.1788L99.0074 36H100.351L102.188 41H101.006H101.003ZM100.365 38.9296C100.017 37.8556 99.8207 37.2474 99.7776 37.1077C99.7346 36.9679 99.7022 36.8566 99.6834 36.7738C99.6053 37.0637 99.3817 37.7831 99.0128 38.9296H100.365Z" fill="#5E5B60"/>
<path d="M102.188 39.827H102.562C102.882 39.2137 103.136 38.598 103.319 37.9847C103.505 37.3714 103.643 36.7099 103.734 36H106.551V39.827H107.197V42H106.207V40.6455H103.176V42H102.188V39.827ZM104.546 36.8209C104.475 37.3062 104.357 37.8205 104.194 38.3614C104.03 38.9046 103.844 39.3924 103.638 39.827H105.528V36.8209H104.546Z" fill="#5E5B60"/>
<path d="M108.199 41V36H109.201V41H108.199Z" fill="#5E5B60"/>
<path d="M110.203 35.7164H111.264V38.2676L111.249 38.9514L111.211 39.7285H111.235L113.801 35.7164H115.212V41H114.163V38.4625C114.163 38.122 114.186 37.6195 114.232 36.9521H114.2L111.622 41H110.203V35.7164ZM114.55 34C114.501 34.4504 114.322 34.7799 114.012 34.9859C113.703 35.1918 113.255 35.2934 112.674 35.2934C112.093 35.2934 111.628 35.1946 111.342 34.9969C111.055 34.7991 110.894 34.4668 110.856 34H111.894C111.911 34.2472 111.977 34.4229 112.09 34.5218C112.203 34.6206 112.405 34.6728 112.697 34.6728C112.954 34.6728 113.145 34.6179 113.27 34.508C113.397 34.3982 113.472 34.2279 113.501 34H114.55Z" fill="#5E5B60"/>
<path d="M120.221 41H119.187V38.843H117.251V41H116.214V36H117.251V37.9595H119.187V36H120.221V41Z" fill="#5E5B60"/>
<path d="M121.223 36H122.284V38.4142L122.269 39.0613L122.232 39.7968H122.255L124.822 36H126.232V41H125.183V38.5988C125.183 38.2765 125.206 37.8009 125.252 37.1694H125.221L122.642 41H121.223V36Z" fill="#5E5B60"/>
<path d="M127.234 35.7164H128.295V38.2676L128.28 38.9514L128.243 39.7285H128.266L130.833 35.7164H132.243V41H131.194V38.4625C131.194 38.122 131.217 37.6195 131.263 36.9521H131.232L128.653 41H127.234V35.7164ZM131.581 34C131.532 34.4504 131.353 34.7799 131.044 34.9859C130.734 35.1918 130.286 35.2934 129.705 35.2934C129.124 35.2934 128.659 35.1946 128.373 34.9969C128.087 34.7991 127.925 34.4668 127.887 34H128.925C128.942 34.2472 129.009 34.4229 129.121 34.5218C129.234 34.6206 129.437 34.6728 129.729 34.6728C129.983 34.6728 130.174 34.6179 130.301 34.508C130.425 34.3982 130.503 34.2279 130.532 34H131.581Z" fill="#5E5B60"/>
<path d="M138.1 37.2058C138.1 37.5192 137.983 37.777 137.749 37.9818C137.516 38.1866 137.199 38.3155 136.801 38.3711V38.3913C137.268 38.4368 137.63 38.5581 137.88 38.7604C138.129 38.9626 138.254 39.2255 138.254 39.549C138.254 39.9965 138.063 40.3504 137.683 40.6107C137.3 40.8711 136.774 41 136.099 41C135.35 41 134.747 40.9115 134.292 40.7371V39.8726C134.51 39.9712 134.768 40.0495 135.063 40.1077C135.358 40.1633 135.634 40.1911 135.889 40.1911C136.75 40.1911 137.181 39.9535 137.181 39.4757C137.181 39.2609 137.043 39.0966 136.766 38.9803C136.49 38.864 136.081 38.8084 135.541 38.8084H135.063V38.002H135.493C136.035 38.002 136.429 37.954 136.676 37.8554C136.923 37.7568 137.045 37.595 137.045 37.3701C137.045 37.2032 136.968 37.0718 136.811 36.9732C136.657 36.8746 136.423 36.8241 136.112 36.8241C135.631 36.8241 135.169 36.9555 134.72 37.2209L134.247 36.5334C134.539 36.3488 134.848 36.2149 135.174 36.1289C135.501 36.043 135.863 36 136.261 36C136.819 36 137.263 36.1112 137.595 36.3337C137.927 36.5561 138.095 36.8468 138.095 37.2083L138.1 37.2058Z" fill="#5E5B60"/>
<path d="M142.079 41L141.704 39.8147H139.814L139.439 41H138.254L140.083 36H141.427L143.263 41H142.079ZM141.44 38.9296C141.093 37.8556 140.896 37.2474 140.853 37.1077C140.81 36.9679 140.778 36.8566 140.759 36.7738C140.681 37.0637 140.457 37.7831 140.088 38.9296H141.438H141.44Z" fill="#5E5B60"/>
<path d="M148.273 41H146.974L145.729 39.1081L144.481 41H143.264L145.041 38.422L143.378 36H144.631L145.785 37.7983L146.919 36H148.142L146.459 38.4792L148.27 41H148.273Z" fill="#5E5B60"/>
<path d="M148.273 36H149.334V38.4142L149.319 39.0613L149.281 39.7968H149.305L151.871 36H153.282V41H152.233V38.5988C152.233 38.2765 152.256 37.8009 152.302 37.1694H152.27L149.692 41H148.273V36Z" fill="#5E5B60"/>
<path d="M156.749 36.8569C156.329 36.8569 156.006 37.0035 155.774 37.2942C155.544 37.5849 155.429 37.9919 155.429 38.5126C155.429 39.5971 155.869 40.1405 156.749 40.1405C157.118 40.1405 157.567 40.0546 158.092 39.8852V40.7497C157.66 40.9166 157.179 41 156.646 41C155.88 41 155.295 40.7851 154.891 40.3554C154.486 39.9257 154.284 39.3114 154.284 38.5076C154.284 38.002 154.385 37.5597 154.582 37.178C154.781 36.7988 155.068 36.5056 155.44 36.3033C155.812 36.1011 156.249 36 156.752 36C157.255 36 157.777 36.1138 158.291 36.3438L157.93 37.183C157.734 37.0971 157.537 37.0212 157.337 36.958C157.138 36.8948 156.944 36.862 156.752 36.862L156.749 36.8569Z" fill="#5E5B60"/>
<path d="M160.856 41H159.731V36.8831H158.291V36H162.299V36.8831H160.859V41H160.856Z" fill="#5E5B60"/>
</g>
<defs>
<clipPath id="clip0_214_770">
<rect width="220.405" height="70" fill="white"/>
</clipPath>
</defs>
</svg>
